<?xml version="1.0" encoding="utf-8"?>
<!-- Generator: Adobe Illustrator 19.0.0, SVG Export Plug-In . SVG Version: 6.00 Build 0)  -->
<svg version="1.1" id="Ebene_1" xmlns="http://www.w3.org/2000/svg" xmlns:xlink="http://www.w3.org/1999/xlink" x="0px" y="0px"
	 viewBox="0 0 566.9 113.4" enable-background="new 0 0 566.9 113.4" xml:space="preserve">
<radialGradient id="XMLID_767_" cx="282.3242" cy="35.3084" r="300.2876" gradientTransform="matrix(1 0 0 0.6667 0 33.8207)" gradientUnits="userSpaceOnUse">
	<stop  offset="0" style="stop-color:#F6F6F6"/>
	<stop  offset="0.2476" style="stop-color:#E4E4E4"/>
	<stop  offset="0.7679" style="stop-color:#B6B5B5"/>
	<stop  offset="1" style="stop-color:#9D9D9C"/>
</radialGradient>
<rect id="XMLID_440_" x="-0.1" fill="url(#XMLID_767_)" width="566.9" height="113.4"/>
<g id="XMLID_391_">
	<circle id="XMLID_478_" fill="#E94E1B" cx="248.1" cy="64.7" r="5.2"/>
	<g id="XMLID_473_">
		<path id="XMLID_477_" d="M251.3,62c3.3,4.2-3,9.5-6.5,5.3c-1.4-1.8-1.2-4.5,0.6-5.9C247.2,59.9,249.7,60.3,251.3,62
			c0.9,0.9,2.3-0.5,1.4-1.4c-2.3-2.5-6.1-2.8-8.7-0.6c-2.5,2.2-2.8,6.2-0.6,8.7c2.2,2.5,6.2,2.8,8.7,0.6c2.6-2.3,2.6-6.1,0.6-8.7
			C251.9,59.6,250.5,61,251.3,62z"/>
	</g>
</g>
<g id="XMLID_392_">
	<circle id="XMLID_492_" fill="#009FE3" cx="301.5" cy="29.2" r="5.2"/>
	<g id="XMLID_487_">
		<path id="XMLID_491_" d="M304.7,26.5c3.3,4.2-3,9.5-6.5,5.3c-1.4-1.8-1.2-4.5,0.6-5.9C300.7,24.4,303.2,24.8,304.7,26.5
			c0.9,0.9,2.3-0.5,1.4-1.4c-2.3-2.5-6.1-2.8-8.7-0.6c-2.5,2.2-2.8,6.2-0.6,8.7c2.2,2.5,6.2,2.8,8.7,0.6c2.6-2.3,2.6-6.1,0.6-8.7
			C305.3,24.1,303.9,25.5,304.7,26.5z"/>
	</g>
</g>
<g id="XMLID_393_">
	<circle id="XMLID_485_" fill="#95C11F" cx="266.2" cy="23.8" r="5.2"/>
	<g id="XMLID_480_">
		<path id="XMLID_484_" d="M269.5,21.1c3.3,4.2-3,9.5-6.5,5.3c-1.4-1.8-1.2-4.5,0.6-5.9C265.4,19,267.9,19.4,269.5,21.1
			c0.9,0.9,2.3-0.5,1.4-1.4c-2.3-2.5-6.1-2.8-8.7-0.6c-2.5,2.2-2.8,6.2-0.6,8.7c2.2,2.5,6.2,2.8,8.7,0.6c2.6-2.3,2.6-6.1,0.6-8.7
			C270.1,18.7,268.7,20.1,269.5,21.1z"/>
	</g>
</g>
<g id="XMLID_394_">
	<g id="XMLID_467_">
		<path id="XMLID_471_" d="M255.9,66.4c8.1-0.8,16.9,1.6,22.5,7.7c0.9,0.9,2.3-0.5,1.4-1.4c-5.9-6.4-15.3-9.1-23.9-8.2
			C254.7,64.6,254.7,66.6,255.9,66.4L255.9,66.4z"/>
	</g>
</g>
<g id="XMLID_397_">
	<g id="XMLID_472_">
		<path id="XMLID_601_" d="M280.8,58c-8.6-2.1-18.1-1.9-26.5,1.2c-1.2,0.4-0.7,2.4,0.5,1.9c8-3,17.2-3.2,25.4-1.2
			C281.5,60.2,282,58.3,280.8,58L280.8,58z"/>
	</g>
</g>
<g id="XMLID_398_">
	<g id="XMLID_602_">
		<path id="XMLID_606_" d="M293.4,32c-9.1,4.1-11.6,15.7-11,24.6c0.1,1.3,2.1,1.3,2,0c-0.6-8.2,1.5-19.1,10-22.9
			C295.6,33.2,294.6,31.5,293.4,32L293.4,32z"/>
	</g>
</g>
<g id="XMLID_399_">
	<g id="XMLID_607_">
		<path id="XMLID_611_" d="M263.3,31.1c-2.4,7.5,0,16.5,2.7,23.6c0.5,1.2,2.4,0.7,1.9-0.5c-2.6-6.7-5-15.3-2.7-22.5
			C265.6,30.4,263.7,29.9,263.3,31.1L263.3,31.1z"/>
	</g>
</g>
<path id="XMLID_395_" fill="#FFFFFF" stroke="#000000" stroke-miterlimit="10" d="M270.4,27"/>
<g id="XMLID_401_">
	<g id="XMLID_612_">
		<path id="XMLID_616_" d="M268.2,31.5c1.2,6.1,7.5,10.8,12.4,13.7c1.1,0.7,2.1-1.1,1-1.7c-4.5-2.7-10.3-7-11.5-12.5
			C269.9,29.7,268,30.3,268.2,31.5L268.2,31.5z"/>
	</g>
</g>
<g id="XMLID_400_">
	<g id="XMLID_617_">
		<path id="XMLID_621_" d="M296.3,35.6c-7.3,6-2,16.2,2.9,21.8c0.9,1,2.3-0.5,1.4-1.4c-4.2-4.7-9.3-13.7-2.9-18.9
			C298.8,36.2,297.3,34.8,296.3,35.6L296.3,35.6z"/>
	</g>
</g>
<g id="XMLID_402_">
	<g id="XMLID_622_">
		<path id="XMLID_733_" d="M275.9,79.1c12.1-4.8,23.2-13.6,30.5-24.4c0.7-1.1-1-2.1-1.7-1C297.7,64,287,72.6,275.4,77.2
			C274.2,77.6,274.7,79.6,275.9,79.1L275.9,79.1z"/>
	</g>
</g>
<g id="XMLID_410_">
	<path id="XMLID_408_" fill="none" stroke="#000000" stroke-width="2" stroke-miterlimit="10" d="M291.9,72.7l20,23.6
		c1,1.2,2.8,1.4,4.1,0.3c1.2-1,1.4-2.8,0.3-4.1l-19.8-23.4"/>
	<g id="XMLID_411_">
		<g id="XMLID_734_">
			<path id="XMLID_738_" d="M295.8,69.9c0.2,0.3,0.5,0.6,0.7,0.9c0.3,0.4,1.1,0.4,1.4,0c0.4-0.4,0.4-1,0-1.4
				c-0.2-0.3-0.5-0.6-0.7-0.9c-0.3-0.4-1.1-0.4-1.4,0C295.4,68.9,295.4,69.5,295.8,69.9L295.8,69.9z"/>
		</g>
	</g>
	<g id="XMLID_409_">
		<g id="XMLID_739_">
			<path id="XMLID_743_" d="M291.3,73.6c0.2,0.3,0.5,0.6,0.7,0.9c0.4,0.4,1.1,0.4,1.4,0c0.4-0.4,0.4-1,0-1.4
				c-0.2-0.3-0.5-0.6-0.7-0.9c-0.4-0.4-1.1-0.4-1.4,0C290.9,72.6,291,73.2,291.3,73.6L291.3,73.6z"/>
		</g>
	</g>
</g>
<g id="XMLID_760_">
</g>
<g id="XMLID_761_">
</g>
<g id="XMLID_762_">
</g>
<g id="XMLID_763_">
</g>
<g id="XMLID_764_">
</g>
<g id="XMLID_765_">
</g>
</svg>
