<?xml version="1.0" encoding="utf-8"?>
<!-- Generator: Adobe Illustrator 19.0.0, SVG Export Plug-In . SVG Version: 6.00 Build 0)  -->
<svg version="1.1" id="Ebene_1" xmlns="http://www.w3.org/2000/svg" xmlns:xlink="http://www.w3.org/1999/xlink" x="0px" y="0px"
	 viewBox="0 0 81.3 86" enable-background="new 0 0 81.3 86" xml:space="preserve">
<g id="XMLID_391_">
	<circle id="XMLID_478_" fill="#E94E1B" cx="9.6" cy="49.7" r="5.1"/>
	<g id="XMLID_473_">
		<path id="XMLID_477_" d="M12.8,47c3.3,4.2-3,9.3-6.3,5.2C5,50.5,5.2,47.9,7,46.5C8.8,45,11.2,45.4,12.8,47
			c0.9,0.9,2.3-0.5,1.4-1.4c-2.3-2.4-6.1-2.8-8.6-0.6c-2.5,2.2-2.8,6.1-0.6,8.6c2.2,2.5,6.1,2.8,8.6,0.6c2.6-2.3,2.6-6,0.6-8.6
			C13.4,44.6,12,46,12.8,47z"/>
	</g>
</g>
<g id="XMLID_392_">
	<circle id="XMLID_492_" fill="#009FE3" cx="62.1" cy="14.7" r="5.1"/>
	<g id="XMLID_487_">
		<path id="XMLID_491_" d="M65.3,12.1c3.3,4.2-3,9.3-6.3,5.2c-1.4-1.7-1.2-4.4,0.6-5.8C61.3,10.1,63.8,10.5,65.3,12.1
			c0.9,0.9,2.3-0.5,1.4-1.4c-2.3-2.4-6.1-2.8-8.6-0.6c-2.5,2.2-2.8,6.1-0.6,8.6c2.2,2.5,6.1,2.8,8.6,0.6c2.6-2.3,2.6-6,0.6-8.6
			C65.9,9.7,64.5,11.1,65.3,12.1z"/>
	</g>
</g>
<g id="XMLID_393_">
	<circle id="XMLID_485_" fill="#95C11F" cx="27.4" cy="9.4" r="5.1"/>
	<g id="XMLID_480_">
		<path id="XMLID_484_" d="M30.6,6.8c3.3,4.2-3,9.3-6.3,5.2c-1.4-1.7-1.2-4.4,0.6-5.8C26.6,4.8,29.1,5.2,30.6,6.8
			c0.9,0.9,2.3-0.5,1.4-1.4C29.8,3,26,2.6,23.4,4.8c-2.5,2.2-2.8,6.1-0.6,8.6c2.2,2.5,6.1,2.8,8.6,0.6c2.6-2.3,2.6-6,0.6-8.6
			C31.2,4.4,29.8,5.8,30.6,6.8z"/>
	</g>
</g>
<g id="XMLID_394_">
	<g id="XMLID_461_">
		<path id="XMLID_465_" d="M17.3,51.4c8-0.8,16.6,1.6,22.1,7.5c0.9,0.9,2.3-0.5,1.4-1.4c-5.8-6.3-15.1-8.9-23.6-8.1
			C16.1,49.5,16,51.5,17.3,51.4L17.3,51.4z"/>
	</g>
</g>
<g id="XMLID_397_">
	<g id="XMLID_456_">
		<path id="XMLID_460_" d="M41.8,43c-8.4-2.1-17.8-1.9-26,1.2c-1.2,0.4-0.7,2.4,0.5,1.9c7.9-2.9,16.9-3.2,25-1.2
			C42.5,45.3,43,43.3,41.8,43L41.8,43z"/>
	</g>
</g>
<g id="XMLID_398_">
	<g id="XMLID_466_">
		<path id="XMLID_470_" d="M54.2,17.5c-9,4-11.4,15.5-10.8,24.2c0.1,1.3,2.1,1.3,2,0c-0.6-8.1,1.4-18.8,9.8-22.5
			C56.4,18.7,55.4,17,54.2,17.5L54.2,17.5z"/>
	</g>
</g>
<g id="XMLID_399_">
	<g id="XMLID_471_">
		<path id="XMLID_600_" d="M24.5,16.7c-2.3,7.4,0,16.3,2.6,23.2c0.5,1.2,2.4,0.7,1.9-0.5c-2.6-6.6-4.9-15-2.6-22.1
			C26.9,16,24.9,15.4,24.5,16.7L24.5,16.7z"/>
	</g>
</g>
<path id="XMLID_395_" fill="#FFFFFF" stroke="#000000" stroke-miterlimit="10" d="M31.6,12.6"/>
<g id="XMLID_401_">
	<g id="XMLID_601_">
		<path id="XMLID_605_" d="M29.4,17c1.2,6,7.3,10.6,12.2,13.5c1.1,0.7,2.1-1.1,1-1.7c-4.4-2.6-10.2-6.9-11.3-12.3
			C31.1,15.2,29.1,15.8,29.4,17L29.4,17z"/>
	</g>
</g>
<g id="XMLID_400_">
	<g id="XMLID_606_">
		<path id="XMLID_610_" d="M57.1,21.1c-7.2,5.9-1.9,16,2.8,21.4c0.9,1,2.3-0.5,1.4-1.4c-4.1-4.6-9.1-13.4-2.8-18.6
			C59.5,21.7,58.1,20.3,57.1,21.1L57.1,21.1z"/>
	</g>
</g>
<g id="XMLID_402_">
	<g id="XMLID_611_">
		<path id="XMLID_615_" d="M37,63.8c11.9-4.7,22.8-13.4,30-24c0.7-1.1-1-2.1-1.7-1c-6.8,10.1-17.3,18.6-28.8,23.1
			C35.3,62.4,35.8,64.3,37,63.8L37,63.8z"/>
	</g>
</g>
<g id="XMLID_410_">
	<path id="XMLID_408_" fill="none" stroke="#000000" stroke-width="2" stroke-miterlimit="10" d="M52.7,57.6l19.7,23.3
		c1,1.2,2.8,1.3,4,0.3c1.2-1,1.3-2.8,0.3-4l-19.5-23"/>
	<g id="XMLID_411_">
		<g id="XMLID_620_">
			<path id="XMLID_624_" d="M56.5,54.8c0.2,0.3,0.5,0.6,0.7,0.8c0.3,0.4,1.1,0.4,1.4,0c0.4-0.4,0.4-1,0-1.4
				c-0.2-0.3-0.5-0.6-0.7-0.8c-0.3-0.4-1.1-0.4-1.4,0C56.1,53.8,56.1,54.4,56.5,54.8L56.5,54.8z"/>
		</g>
	</g>
	<g id="XMLID_409_">
		<g id="XMLID_616_">
			<path id="XMLID_625_" d="M52.1,58.4c0.2,0.3,0.5,0.6,0.7,0.8c0.4,0.4,1.1,0.4,1.4,0c0.4-0.4,0.4-1,0-1.4
				c-0.2-0.3-0.5-0.6-0.7-0.8c-0.4-0.4-1.1-0.4-1.4,0C51.7,57.4,51.8,58,52.1,58.4L52.1,58.4z"/>
		</g>
	</g>
</g>
<g id="XMLID_642_">
</g>
<g id="XMLID_643_">
</g>
<g id="XMLID_644_">
</g>
<g id="XMLID_645_">
</g>
<g id="XMLID_646_">
</g>
<g id="XMLID_647_">
</g>
</svg>
