<?xml version="1.0" encoding="utf-8"?>
<!-- Generator: Adobe Illustrator 19.0.0, SVG Export Plug-In . SVG Version: 6.00 Build 0)  -->
<svg version="1.1" id="Ebene_1" xmlns="http://www.w3.org/2000/svg" xmlns:xlink="http://www.w3.org/1999/xlink" x="0px" y="0px"
	 viewBox="0 0 566.9 170.1" enable-background="new 0 0 566.9 170.1" xml:space="preserve">
<radialGradient id="XMLID_464_" cx="282.4646" cy="86.0394" r="300.2876" gradientUnits="userSpaceOnUse">
	<stop  offset="0" style="stop-color:#9B9593;stop-opacity:0"/>
	<stop  offset="1" style="stop-color:#AAA3A1;stop-opacity:0.95"/>
</radialGradient>
<rect id="XMLID_440_" fill="url(#XMLID_464_)" width="566.9" height="170.1"/>
<g id="XMLID_391_">
	<circle id="XMLID_478_" fill="#E94E1B" cx="245" cy="95.7" r="5.5"/>
	<g id="XMLID_473_">
		<path id="XMLID_477_" d="M248.4,92.8c1.5,1.9,1.3,4.7-0.6,6.3c-1.9,1.6-4.8,1.3-6.3-0.6c-1.6-1.9-1.3-4.8,0.6-6.3
			C244.1,90.6,246.8,91,248.4,92.8c0.9,0.9,2.3-0.5,1.4-1.4c-2.4-2.6-6.4-3-9.2-0.6c-2.7,2.3-2.9,6.5-0.6,9.2
			c2.3,2.7,6.5,2.9,9.2,0.6c2.8-2.4,2.8-6.4,0.6-9.2C249.1,90.4,247.7,91.8,248.4,92.8z"/>
	</g>
</g>
<g id="XMLID_392_">
	<circle id="XMLID_492_" fill="#009FE3" cx="301.5" cy="58.1" r="5.5"/>
	<g id="XMLID_487_">
		<path id="XMLID_491_" d="M305,55.2c1.5,1.9,1.3,4.7-0.6,6.3c-1.9,1.6-4.8,1.3-6.3-0.6c-1.6-1.9-1.3-4.8,0.6-6.3
			C300.6,53,303.3,53.5,305,55.2c0.9,0.9,2.3-0.5,1.4-1.4c-2.4-2.6-6.4-3-9.2-0.6c-2.7,2.3-2.9,6.5-0.6,9.2c2.3,2.7,6.5,2.9,9.2,0.6
			c2.8-2.4,2.8-6.4,0.6-9.2C305.6,52.8,304.2,54.2,305,55.2z"/>
	</g>
</g>
<g id="XMLID_393_">
	<circle id="XMLID_485_" fill="#95C11F" cx="264.2" cy="52.4" r="5.5"/>
	<g id="XMLID_480_">
		<path id="XMLID_484_" d="M267.6,49.5c1.5,1.9,1.3,4.7-0.6,6.3c-1.9,1.6-4.8,1.3-6.3-0.6c-1.6-1.9-1.3-4.8,0.6-6.3
			C263.3,47.3,266,47.7,267.6,49.5c0.9,0.9,2.3-0.5,1.4-1.4c-2.4-2.6-6.4-3-9.2-0.6c-2.7,2.3-2.9,6.5-0.6,9.2
			c2.3,2.7,6.5,2.9,9.2,0.6c2.8-2.4,2.8-6.4,0.6-9.2C268.3,47.1,266.9,48.5,267.6,49.5z"/>
	</g>
</g>
<g id="XMLID_394_">
	<g id="XMLID_466_">
		<path id="XMLID_470_" d="M253.3,97.5c8.6-0.8,17.9,1.7,23.9,8.1c0.9,0.9,2.3-0.5,1.4-1.4c-6.3-6.8-16.2-9.6-25.3-8.7
			C252,95.6,252,97.6,253.3,97.5L253.3,97.5z"/>
	</g>
</g>
<g id="XMLID_397_">
	<g id="XMLID_471_">
		<path id="XMLID_600_" d="M279.6,88.6c-9-2.3-19.1-2-28,1.2c-1.2,0.4-0.7,2.4,0.5,1.9c8.5-3.1,18.2-3.4,26.9-1.2
			C280.3,90.8,280.8,88.9,279.6,88.6L279.6,88.6z"/>
	</g>
</g>
<g id="XMLID_398_">
	<g id="XMLID_601_">
		<path id="XMLID_605_" d="M293,61.1c-9.6,4.3-12.2,16.6-11.6,26c0.1,1.3,2.1,1.3,2,0c-0.6-8.7,1.5-20.2,10.6-24.2
			C295.2,62.3,294.2,60.6,293,61.1L293,61.1z"/>
	</g>
</g>
<g id="XMLID_399_">
	<g id="XMLID_606_">
		<path id="XMLID_610_" d="M261.1,60.2c-2.5,8,0,17.5,2.8,24.9c0.5,1.2,2.4,0.7,1.9-0.5c-2.8-7.1-5.2-16.2-2.8-23.8
			C263.5,59.5,261.5,59,261.1,60.2L261.1,60.2z"/>
	</g>
</g>
<path id="XMLID_395_" fill="#FFFFFF" stroke="#000000" stroke-miterlimit="10" d="M268.6,55.8"/>
<g id="XMLID_401_">
	<g id="XMLID_611_">
		<path id="XMLID_615_" d="M266.4,60.6c1.3,6.4,7.9,11.4,13.1,14.5c1.1,0.7,2.1-1.1,1-1.7c-4.7-2.8-11-7.4-12.2-13.3
			C268,58.8,266.1,59.3,266.4,60.6L266.4,60.6z"/>
	</g>
</g>
<g id="XMLID_400_">
	<g id="XMLID_616_">
		<path id="XMLID_620_" d="M296.1,65c-7.7,6.4-2.1,17.1,3.1,23c0.9,1,2.3-0.5,1.4-1.4c-4.4-5-9.9-14.5-3.1-20.1
			C298.5,65.6,297.1,64.2,296.1,65L296.1,65z"/>
	</g>
</g>
<g id="XMLID_402_">
	<g id="XMLID_621_">
		<path id="XMLID_625_" d="M274.4,110.8c12.8-5,24.6-14.4,32.2-25.8c0.7-1.1-1-2.1-1.7-1c-7.3,10.9-18.7,20.1-31,24.9
			C272.7,109.4,273.2,111.3,274.4,110.8L274.4,110.8z"/>
	</g>
</g>
<g id="XMLID_410_">
	<path id="XMLID_408_" fill="none" stroke="#000000" stroke-width="2" stroke-miterlimit="10" d="M291.4,104.2l21.2,25
		c1.1,1.3,3,1.4,4.3,0.4c1.3-1.1,1.4-3,0.4-4.3l-20.9-24.7"/>
	<g id="XMLID_411_">
		<g id="XMLID_733_">
			<path id="XMLID_737_" d="M295.5,101.2c0.3,0.3,0.5,0.6,0.8,0.9c0.3,0.4,1.1,0.4,1.4,0c0.4-0.4,0.4-1,0-1.4
				c-0.3-0.3-0.5-0.6-0.8-0.9c-0.3-0.4-1.1-0.4-1.4,0C295.1,100.2,295.1,100.7,295.5,101.2L295.5,101.2z"/>
		</g>
	</g>
	<g id="XMLID_409_">
		<g id="XMLID_738_">
			<path id="XMLID_742_" d="M290.8,105c0.3,0.3,0.5,0.6,0.8,0.9c0.4,0.4,1.1,0.4,1.4,0c0.4-0.4,0.4-1,0-1.4
				c-0.3-0.3-0.5-0.6-0.8-0.9c-0.4-0.4-1.1-0.4-1.4,0C290.4,104,290.4,104.6,290.8,105L290.8,105z"/>
		</g>
	</g>
</g>
<g id="XMLID_441_">
</g>
<g id="XMLID_442_">
</g>
<g id="XMLID_443_">
</g>
<g id="XMLID_444_">
</g>
<g id="XMLID_445_">
</g>
<g id="XMLID_462_">
</g>
</svg>
